<!-- Generator: Adobe Illustrator 18.1.0, SVG Export Plug-In  -->
<svg version="1.1"
	 xmlns="http://www.w3.org/2000/svg" xmlns:xlink="http://www.w3.org/1999/xlink" xmlns:a="http://ns.adobe.com/AdobeSVGViewerExtensions/3.0/"
	 x="0px" y="0px" width="390.875px" height="389.318px" viewBox="0 0 390.875 389.318" enable-background="new 0 0 390.875 389.318"
	 xml:space="preserve">
<defs>
</defs>
<g>
	<path d="M390.282,181.955c3.813,50.189-10.822,94.762-41.891,133.882c-28.94,36.438-66.656,59.725-112.146,69.014
		c-57.895,11.823-111.379,0.231-158.707-35.398C35.649,317.919,10.6,275.711,2.39,223.749c-2.135-13.512-3.213-27.078-1.643-40.746
		c0.637-3.025,0.463-6.233,2.038-9.05c4.22-9.764,10.656-17.887,18.695-24.728c2.059-1.752,3.997-4.783,7.574-2.721
		c1.073,2.164,0.223,4.262-0.293,6.332c-3.522,14.122-5.813,28.632-5.45,42.997c0.684,27.021,6.262,53.252,19.252,77.368
		c15.59,28.941,37.289,52.214,65.58,69.097c28.639,17.091,59.652,24.634,93.049,23.745c41.228-1.098,77.235-15.455,107.995-42.279
		c31.93-27.844,50.944-63.168,57.083-105.321c3.388-23.265,1.742-46.122-4.13-68.777c-0.336-1.298-0.684-2.586-0.167-3.915
		c1.686-1.87,3.186-0.325,4.261,0.587C377.565,155.952,388.008,166.211,390.282,181.955z"/>
	<path fill="#BE9448" d="M28.458,146.24c-9.889,5.418-16.705,13.756-22.178,23.365c-0.892,1.566-1.733,3.161-2.597,4.743
		c-3.435-0.601-0.593-3.665-1.988-5.067c-0.162-1.205-0.163-2.379,0.668-3.389c0.431,0.207,0.544,0.651,0.762,1.017
		c0.308-0.212-0.073-0.338-0.07-0.526c0.015-1.242-0.02-2.485,0.037-3.729c0.41-1.769,1.587-3.451,0.598-5.374
		c5.906-32.416,19.889-61.052,40.701-86.423c16.636-20.281,36.636-36.561,59.931-48.588c8.199-4.233,16.827-7.596,25.554-10.835
		c11.383-4.224,22.972-6.718,34.718-9.056c1.362,0.704,2.824,0.229,4.234,0.367c0.367,0.036,0.639-0.041,0.824-0.33
		c-0.637,0.496-1.059,0.129-1.449-0.362c1.009-0.833,2.185-0.826,3.39-0.675c1.679,0.413,3.371,0.971,4.901-0.407
		c1.616-0.947,3.373-0.65,5.105-0.583c6.453,0.694,12.924,0.417,19.388,0.36c2.831-0.222,5.709,0.658,8.509-0.353
		c1.488-0.11,2.996-0.359,4.323,0.633c1.808,1.491,3.759,0.651,5.678,0.351c1.205-0.152,2.381-0.157,3.391,0.674
		c-0.434,0.513-0.882,0.941-1.513,0.249c0.2,0.34,0.498,0.474,0.887,0.44c1.411-0.123,2.871,0.334,4.235-0.355
		c24.572,3.729,47.502,12.026,68.876,24.689c9.88,5.854,18.696,13.043,27.482,20.423c8.111,6.813,15.29,14.321,22.269,22.216
		c12.841,14.528,22.689,30.809,30.236,48.577c-0.56,1.592-0.133,2.835,1.318,3.714c5.426,11.428,8.355,23.616,10.901,35.916
		c0.366,1.769,0.546,3.576,0.812,5.365c-0.202,1.249-1.184,2.575,0.356,3.654c1.038,4.954,2.086,9.907,1.537,15.019
		c-3.534-10.626-9.02-20.023-17.078-27.901c-3.281-3.208-6.806-6.062-10.559-8.666c-2.577-1.058-2.752-3.631-3.421-5.757
		c-6.533-20.758-17.293-39.3-30.961-55.965c-17.125-20.882-38.652-36.273-63.384-47.159c-10.697-4.708-21.826-8.026-33.181-10.686
		c-1.63-0.382-3.86-0.023-4.377-2.489c0.578-0.753,1.519-0.446,2.176-0.699c-1.608-0.218-2.874,0.855-4.314,1.417
		c-1.525,0.219-3.032,0.38-3.865-1.349c0.175-0.672,0.551-1.016,1.288-0.745c-0.265-0.875-0.745-0.134-0.988-0.047
		c-1.164,0.416-2.124,1.325-3.433,1.458c-8.804-0.69-17.615-0.597-26.427-0.652c-5.83-0.036-11.636,0.23-17.43,0.687
		c-1.279-0.132-2.527-0.466-3.653-1.099c-1.01-0.568-1.361-0.475-0.987,0.739c-3.27,2.303-7.235,2.266-10.893,3.078
		c-29.059,6.45-54.697,19.615-77.04,39.16c-23.975,20.973-40.667,46.818-50.692,77.015C30.554,143.84,30.428,145.656,28.458,146.24z
		"/>
	<path fill="#BB8F3E" d="M201.543,1.23c-6.671,0.267-13.35,0.712-19.944-0.841c6.646-0.425,13.293-0.551,19.944-0.131
		c0.328,0.216,0.437,0.432,0.328,0.648C201.762,1.122,201.653,1.23,201.543,1.23z"/>
	<path fill="#BB9040" d="M1.695,169.28c1.686,1.287-0.053,3.918,1.988,5.067c-0.98,2.888-1.96,5.777-2.938,8.661
		C-0.136,178.346,1.206,173.843,1.695,169.28z"/>
	<path fill="#BB8F3F" d="M201.543,1.23c0-0.324,0-0.648,0-0.972c2.651,0.046,5.302,0.092,7.953,0.138
		C207.052,2.649,204.192,0.939,201.543,1.23z"/>
	<path fill="#BB9040" d="M3.541,162.229c-0.01,1.481,0.028,2.964-0.051,4.441c-0.041,0.759-0.514,0.598-0.834,0.158
		c-0.182-0.25-0.2-0.619-0.292-0.936c0.12-1.543,0.24-3.086,0.36-4.628C3.518,161.144,4.083,161.218,3.541,162.229z"/>
	<path fill="#BB8F3E" d="M219.497,1.38c-1.893,1.425-3.941,0.962-5.984,0.471c-0.039-0.009-0.055-0.307-0.004-0.441
		c0.056-0.145,0.202-0.255,0.31-0.381C215.712,1.146,217.604,1.263,219.497,1.38z"/>
	<path fill="#BC9041" d="M376.677,122.005c-2.377-0.55-2.549-1.883-1.318-3.714C375.799,119.529,376.238,120.767,376.677,122.005z"
		/>
	<path fill="#BA8E3E" d="M3.541,162.229c-0.273-0.322-0.545-0.643-0.818-0.965c0.322-1.328,0.644-2.656,0.966-3.984
		C4.944,158.969,5.042,160.623,3.541,162.229z"/>
	<path fill="#BB9040" d="M226.496,2.387c-1.315,1.351-2.982,0.824-4.515,0.748c-0.771-0.038-0.406-0.574-0.007-0.816
		c0.261-0.159,0.605-0.181,0.913-0.264C224.091,2.165,225.293,2.276,226.496,2.387z"/>
	<path fill="#BB8F3F" d="M168.202,2.054c0.306,0.084,0.65,0.107,0.911,0.267c0.401,0.245,0.752,0.782-0.012,0.816
		c-1.531,0.068-3.199,0.608-4.507-0.757C165.797,2.271,166.999,2.162,168.202,2.054z"/>
	<path fill="#BB9040" d="M388.746,166.941c-2.235-1.012-1.246-2.338-0.356-3.654C388.508,164.505,388.627,165.723,388.746,166.941z"
		/>
	<path fill="#BB8F3F" d="M176.494,0.972c-1.483,1.952-3.16,1.561-4.901,0.407C173.227,1.243,174.86,1.108,176.494,0.972z"/>
	<path fill="#BB9041" d="M227.188,23.416c-0.542-0.078-1.085-0.157-1.627-0.235c1.132-1.27,2.486-1.098,3.999-0.633
		C229.004,23.696,227.907,23.044,227.188,23.416z"/>
	<path fill="#BB9040" d="M221.194,22.415c-0.545-0.075-1.091-0.151-1.636-0.226c1.127-1.282,2.484-1.099,3.999-0.646
		C223.008,22.694,221.91,22.041,221.194,22.415z"/>
	<path fill="#BB9040" d="M172.524,22.179c-0.881,0.08-1.762,0.16-2.642,0.241c-0.429-0.176-1.112-0.248-1.236-0.551
		c-0.285-0.693,0.44-0.591,0.805-0.604C170.567,21.224,171.74,21.071,172.524,22.179z"/>
	<path fill="#BE9448" d="M266.866,192.159c4.315,5.804,4.909,13.335,9.098,19.506c4.129-6.796,6.443-14.282,9.671-21.337
		c4.916-10.746,9.77-21.527,14.304-32.437c2.936-7.065,3.466-7.704,11.954-7.704c9.603,0,9.436-0.078,5.438,8.458
		c-13.529,28.89-26.929,57.841-40.383,86.767c-0.277,0.596-0.61,1.167-1.521,2.897c-9.516-22.917-18.689-45.006-28.31-68.175
		c-3.384,8.067-6.432,15.237-9.403,22.439c-5.512,13.362-10.95,26.754-16.509,40.097c-0.505,1.213-0.513,3.321-2.398,3.198
		c-1.23-0.08-2.014-1.38-2.621-2.708c-13.883-30.374-27.838-60.716-41.766-91.069c-0.194-0.422-0.213-0.924-0.423-1.895
		c5.14,0,10.073,0.029,15.006-0.017c1.533-0.014,2.186,0.604,2.873,2.05c3.911,8.228,7.395,16.63,10.896,25.035
		c3.213,7.713,6.831,15.256,10.238,22.889c1.669,3.738,3.263,7.51,5.459,12.578c9.723-23.48,19.037-45.971,28.901-69.792
		c6.274,15.517,12.103,29.935,17.932,44.353C264.527,189.33,265.911,190.676,266.866,192.159z"/>
	<path d="M169.861,227.667c0-24.467,0.022-48.934-0.058-73.401c-0.005-1.377,1.226-3.877-1.341-4.021
		c-4.628-0.261-9.692-1.01-13.777,0.542c-2.264,0.86-0.407,6.128-0.801,9.382c-0.07,0.576,0.252,1.381-0.684,1.61
		c-18.432-21.041-48.595-15.677-62.276-1.484c-12.047,12.497-14.738,27.837-12.7,44.357c1.777,14.401,8.075,26.264,20.852,33.912
		c18.146,10.863,37.257,8.029,54.591-8.133c0.763,12.446,0.76,12.361,13.098,11.817c2.387-0.105,3.234-0.694,3.136-3.098
		C169.746,235.328,169.861,231.495,169.861,227.667z M154.295,198.111c-0.015,0.32-0.05,0.639-0.117,0.951
		c-0.004,0.057-0.007,0.116-0.011,0.172c-0.003,0.051-0.017,0.095-0.022,0.146c0.082,0.344,0.133,0.712,0.147,1.104
		c0.141,4.075-1.245,8.751-3.12,12.552c-0.172,0.633-0.457,1.229-0.853,1.747c-0.2,0.813-0.573,1.576-1.138,2.189
		c-0.097,0.154-0.186,0.313-0.3,0.455c-0.287,0.694-0.715,1.322-1.299,1.811c-0.239,0.389-0.514,0.756-0.863,1.062
		c-0.222,0.327-0.472,0.635-0.776,0.897c-0.282,0.429-0.627,0.818-1.049,1.133c-0.544,0.794-1.327,1.428-2.363,1.743
		c-0.026,0.024-0.051,0.048-0.077,0.071c-0.336,0.295-0.683,0.53-1.036,0.72c-0.937,1.038-1.984,1.876-3.325,2.483
		c-0.879,0.398-1.778,0.751-2.676,1.103c-0.001,0-0.001,0.001-0.002,0.001c-0.18,0.147-0.537,0.249-0.723,0.35
		c-0.986,0.536-2.036,0.714-3.039,0.602c-2.939,1.095-6.185,1.32-9.315,1.217c-2.062-0.068-4.24-0.396-6.22-0.963
		c-1.738-0.498-3.305-1.536-5.028-1.977c-0.97-0.248-1.724-0.691-2.284-1.255c-0.593-0.271-1.089-0.655-1.488-1.116
		c-0.727-0.326-1.29-0.834-1.726-1.432c-0.821-0.462-1.418-1.159-1.813-1.962c-1.154-0.532-1.926-1.497-2.336-2.612
		c-0.755-0.63-1.263-1.487-1.522-2.427c-0.307-0.249-0.585-0.526-0.804-0.864c-0.442-0.483-0.74-1.05-0.895-1.7
		c-0.021-0.052-0.042-0.103-0.063-0.155c-0.06-0.134-0.118-0.269-0.183-0.401c-0.181-0.37-0.315-0.737-0.418-1.106
		c-0.552-0.698-0.884-1.55-1.017-2.438c-0.294-0.584-0.476-1.227-0.543-1.886c-0.254-0.539-0.431-1.117-0.496-1.716
		c-0.167-0.511-0.266-1.046-0.281-1.588c-0.093-0.224-0.181-0.456-0.248-0.71c-0.932-3.525-0.838-7.117-0.683-10.722
		c-0.162-3.45,0.258-7.05,1.433-10.311c0.036-0.101,0.08-0.198,0.118-0.298c0.124-0.727,0.383-1.417,0.829-1.975
		c0.031-0.135,0.061-0.27,0.093-0.404c0.212-0.894,0.567-1.729,0.988-2.547c0.727-1.412,1.591-2.784,2.634-3.99
		c0.39-0.651,0.862-1.137,1.389-1.469c0.329-0.523,0.767-0.973,1.299-1.328c0.307-0.467,0.698-0.879,1.171-1.208
		c0.408-0.652,0.956-1.197,1.652-1.52c0.051-0.024,0.099-0.055,0.149-0.079c0.475-0.608,1.108-1.098,1.897-1.399
		c0.562-0.472,1.146-0.933,1.78-1.298c0.134-0.093,0.269-0.174,0.405-0.237c0.026-0.012,0.053-0.021,0.079-0.033
		c0.177-0.123,0.362-0.236,0.564-0.328c4.119-1.866,8.305-3.367,12.899-3.183c0.255,0.01,0.502,0.048,0.745,0.097
		c0.219,0,0.435,0.015,0.65,0.041c0.036-0.002,0.07-0.013,0.106-0.014c2.094-0.075,4.023,0.371,5.921,0.971
		c5.491,0.764,10.823,4.12,14.615,7.931c0.197,0.198,0.365,0.402,0.519,0.609c1.03,1.135,1.962,2.438,2.762,3.716
		c0.259,0.413,0.479,0.845,0.711,1.272c0.312,0.359,0.562,0.743,0.75,1.154c0.251,0.297,0.485,0.607,0.66,0.956
		c0.41,0.818,0.572,1.485,0.785,2.301c0.384,0.583,0.623,1.253,0.748,1.948c0.157,0.379,0.256,0.781,0.324,1.189
		c0.184,0.497,0.295,1.024,0.332,1.558c0.996,3.097,1.168,6.447,1.064,9.733c0.021,0.349,0.009,0.699-0.033,1.045
		C154.39,197.029,154.384,197.577,154.295,198.111z"/>
	<path fill="#BC9142" d="M266.866,192.159c-1.167-1.415-4.522-2.127-1.565-4.868C266.178,188.8,266.838,190.378,266.866,192.159z"/>
	<path fill="#FEFEFE" d="M103.07,171.271c0.312-0.475,0.711-0.892,1.194-1.224c0.214-0.34,0.454-0.659,0.75-0.92
		c-0.434,0.378-0.867,0.756-1.292,1.164c-0.938,0.899-1.771,1.832-2.554,2.781c0.187-0.177,0.386-0.324,0.59-0.452
		C102.09,172.088,102.532,171.631,103.07,171.271z"/>
	<path fill="#FEFEFE" d="M142.53,224.073c-0.026,0.024-0.051,0.048-0.077,0.071c-0.353,0.31-0.719,0.553-1.091,0.748
		c-0.469,0.505-0.958,0.977-1.501,1.384c1.319-0.816,2.531-1.694,3.645-2.626C143.21,223.825,142.884,223.966,142.53,224.073z"/>
	<path fill="#FEFEFE" d="M151.168,213.051c-0.172,0.628-0.456,1.219-0.849,1.732c-0.2,0.813-0.573,1.576-1.138,2.189
		c-0.097,0.154-0.186,0.313-0.3,0.455c-0.287,0.694-0.715,1.322-1.299,1.811c-0.239,0.389-0.514,0.756-0.863,1.062
		c-0.222,0.327-0.472,0.635-0.777,0.897c-0.284,0.432-0.632,0.823-1.058,1.139c-0.057,0.083-0.106,0.171-0.169,0.25
		c4.285-4,6.934-8.909,8.399-14.418C152.588,209.877,151.917,211.533,151.168,213.051z"/>
	<path fill="#FEFEFE" d="M125.168,162.109c2.094-0.075,4.023,0.371,5.921,0.971c0.489,0.068,0.977,0.154,1.463,0.262
		c-10.002-3.055-19.424-1.239-27.45,5.706c0.241-0.201,0.505-0.373,0.793-0.507c0.051-0.024,0.099-0.055,0.149-0.079
		c0.475-0.608,1.108-1.098,1.897-1.399c0.562-0.472,1.146-0.933,1.78-1.298c0.134-0.093,0.269-0.174,0.405-0.237
		c0.026-0.012,0.053-0.021,0.079-0.033c0.177-0.123,0.362-0.236,0.564-0.328c4.119-1.866,8.305-3.367,12.899-3.183
		c0.255,0.01,0.502,0.048,0.745,0.097c0.219,0,0.435,0.015,0.65,0.041C125.098,162.121,125.132,162.111,125.168,162.109z"/>
	<path fill="#FEFEFE" d="M154.579,191.517c-1.081-9.66-4.664-17.675-11.739-23.047c1.024,0.807,1.987,1.661,2.863,2.541
		c0.197,0.198,0.365,0.402,0.519,0.609c1.03,1.135,1.962,2.438,2.762,3.716c0.259,0.413,0.479,0.845,0.711,1.272
		c0.312,0.359,0.562,0.743,0.75,1.154c0.251,0.297,0.485,0.607,0.66,0.956c0.41,0.818,0.572,1.485,0.785,2.301
		c0.384,0.583,0.623,1.253,0.748,1.948c0.157,0.379,0.256,0.781,0.324,1.189c0.184,0.497,0.295,1.024,0.332,1.558
		c0.996,3.097,1.168,6.447,1.064,9.733c0.021,0.349,0.009,0.699-0.033,1.045c0.064,0.538,0.058,1.086-0.031,1.62
		c-0.015,0.32-0.05,0.639-0.117,0.951c-0.004,0.057-0.007,0.116-0.011,0.172c-0.003,0.051-0.017,0.095-0.022,0.146
		c0.082,0.344,0.133,0.712,0.147,1.104c0.016,0.457-0.004,0.926-0.025,1.396c0.21-1.91,0.324-3.866,0.333-5.869
		C154.601,194.512,154.745,192.997,154.579,191.517z"/>
	<path fill="#FEFEFE" d="M108.805,226.425c-0.593-0.271-1.089-0.655-1.488-1.116c-0.727-0.326-1.29-0.834-1.726-1.432
		c-0.821-0.462-1.418-1.159-1.813-1.962c-1.154-0.532-1.926-1.497-2.336-2.612c-0.755-0.63-1.263-1.487-1.522-2.427
		c-0.307-0.249-0.585-0.526-0.804-0.864c-0.442-0.483-0.74-1.05-0.895-1.7c-0.021-0.052-0.042-0.103-0.063-0.155
		c-0.06-0.134-0.118-0.269-0.183-0.401c-0.181-0.37-0.315-0.737-0.418-1.106c-0.552-0.698-0.884-1.55-1.017-2.438
		c-0.294-0.584-0.476-1.227-0.543-1.886c-0.254-0.539-0.431-1.117-0.496-1.716c-0.167-0.511-0.266-1.046-0.281-1.588
		c-0.093-0.224-0.181-0.456-0.248-0.71c-0.933-3.529-0.838-7.125-0.682-10.734c-0.097-2.083,0.019-4.219,0.385-6.303
		c-0.99,5.398-0.791,11.107,0.057,16.875c1.494,10.167,7.038,18.069,14.412,22.579C109.023,226.634,108.91,226.532,108.805,226.425z
		"/>
	<path fill="#FEFEFE" d="M135.416,228.451c-0.001,0-0.001,0.001-0.002,0.001c-0.18,0.147-0.537,0.249-0.723,0.35
		c-0.986,0.536-2.036,0.714-3.039,0.602c-2.939,1.095-6.185,1.32-9.315,1.217c-2.062-0.068-4.24-0.396-6.22-0.963
		c-1.738-0.498-3.305-1.536-5.028-1.977c-0.26-0.066-0.498-0.151-0.727-0.244c8.068,4.412,18.078,4.897,27.347,0.075
		C136.952,227.842,136.185,228.15,135.416,228.451z"/>
	<path fill="#FEFEFE" d="M96.668,181.008c0.031-0.135,0.061-0.27,0.093-0.404c0.09-0.378,0.217-0.742,0.352-1.102
		c-1.096,2.375-1.872,4.845-2.367,7.39c0.236-1.232,0.555-2.445,0.976-3.612c0.036-0.101,0.08-0.198,0.118-0.298
		C95.963,182.256,96.223,181.565,96.668,181.008z"/>
</g>
</svg>